{"title":"Arbitrage(2012)MPEG-4[DaScubaDude]","uid":14912493,"size":1143291637,"categoryP":"video","categoryS":"movies","magnet":"?xt=urn:btih:f63d70d04d1f43af4dcc3be588806037f80d6c22&amp;dn=Arbitrage%282012%29MPEG-4%5BDaScubaDude%5D&amp;tr=udp%3A%2F%2Ftracker.leechers-paradise.org%3A6969&amp;tr=udp%3A%2F%2Fzer0day.ch%3A1337&amp;tr=udp%3A%2F%2Fopen.demonii.com%3A1337&amp;tr=udp%3A%2F%2Ftracker.coppersurfer.tk%3A6969&amp;tr=udp%3A%2F%2Fexodus.desync.com%3A6969","seeders":1,"leechers":0,"uploader":"dascuba","files":1,"time":1465866358,"description":"Arbitrage (2012)\r\nR | 1h 47min | Drama, Thriller | 14 September 2012 (USA)\r\nA troubled hedge fund magnate desperate to complete the sale of his trading empire makes an error that forces him to turn to an unlikely person for help.\r\nDirector: Nicholas Jarecki\r\nWriter: Nicholas Jarecki\r\nStars: Richard Gere, Susan Sarandon, Brit Marling \r\n\r\nGeneral\r\nComplete name                            : ArbitrageARBITRAGE_Title1.mp4\r\nFormat                                   : MPEG-4\r\nFormat profile                           : Base Media\r\nCodec ID                                 : isom (isom/iso2/avc1/mp41)\r\nFile size                                : 1.06 GiB\r\nDuration                                 : 1h 47mn\r\nOverall bit rate                         : 1 419 Kbps\r\nMovie name                               : ARBITRAGE\r\nGenre                                    : Drama\r\nWriting application                      : Lavf54.6.100\r\n\r\nVideo\r\nID                                       : 1\r\nFormat                                   : AVC\r\nFormat/Info                              : Advanced Video Codec\r\nFormat profile                           :   \r\nFormat settings, CABAC                   : No\r\nFormat settings, ReFrames                : 6 frames\r\nFormat settings, GOP                     : M=1, N=60\r\nCodec ID                                 : avc1\r\nCodec ID/Info                            : Advanced Video Coding\r\nDuration                                 : 1h 47mn\r\nBit rate                                 : 1 214 Kbps\r\nWidth                                    : 720 pixels\r\nHeight                                   : 404 pixels\r\nDisplay aspect ratio                     : 16:9\r\nFrame rate mode                          : Constant\r\nFrame rate                               : 29.970 (30000/1001) fps\r\nColor space                              : YUV\r\nChroma subsampling                       : 4:2:0\r\nBit depth                                : 8 bits\r\nScan type                                : Progressive\r\nBits/(Pixel*Frame)                       : 0.139\r\nStream size                              : 932 MiB (86%)\r\n\r\nAudio\r\nID                                       : 2\r\nFormat                                   : AAC\r\nFormat/Info                              : Advanced Audio Codec\r\nFormat profile                           : LC\r\nCodec ID                                 : 40\r\nDuration                                 : 1h 47mn\r\nBit rate mode                            : Constant\r\nBit rate                                 : 199 Kbps\r\nChannel(s)                               : 2 channels\r\nChannel(s)_Original                      : 6 channels\r\nChannel positions                        : Front: L C R, Side: L R, LFE\r\nSampling rate                            : 44.1 KHz\r\nFrame rate                               : 43.066 fps (1024 spf)\r\nCompression mode                         : Lossy\r\nStream size                              : 153 MiB (14%)\r\nDefault                                  : Yes\r\nAlternate group                          : 1","torrent":{"xt":"urn:btih:f63d70d04d1f43af4dcc3be588806037f80d6c22","amp;dn":"Arbitrage%282012%29MPEG-4%5BDaScubaDude%5D","amp;tr":["udp%3A%2F%2Ftracker.leechers-paradise.org%3A6969","udp%3A%2F%2Fzer0day.ch%3A1337","udp%3A%2F%2Fopen.demonii.com%3A1337","udp%3A%2F%2Ftracker.coppersurfer.tk%3A6969","udp%3A%2F%2Fexodus.desync.com%3A6969"],"infoHash":"f63d70d04d1f43af4dcc3be588806037f80d6c22","infoHashBuffer":{"type":"Buffer","data":[246,61,112,208,77,31,67,175,77,204,59,229,136,128,96,55,248,13,108,34]},"announce":[],"urlList":[]}}